<?xml version="1.0" encoding="utf-8"?><svg xml:space="preserve" viewBox="0 0 100 100" y="0" x="0" xmlns="http://www.w3.org/2000/svg" id="Layer_1" version="1.1" width="50px" height="50px" xmlns:xlink="http://www.w3.org/1999/xlink" ><g class="ldl-scale" ><g ><path d="M45 47h10v31H45z" stroke="#333" fill="#e0e0e0" stroke-miterlimit="10" stroke-width="3.5" ></path>
<path stroke-miterlimit="10" stroke-linejoin="round" stroke-width="3.5" stroke="#333" fill="#e0e0e0" d="M70 84H30l.457-1.702A8.508 8.508 0 0 1 38.672 76h22.655a8.507 8.507 0 0 1 8.215 6.298L70 84z" ></path></g>
<path stroke="#333" fill="#fff" stroke-miterlimit="10" stroke-width="3.5" d="M79.333 62H20.667A4.666 4.666 0 0 1 16 57.333V22.667A4.666 4.666 0 0 1 20.667 18h58.667A4.666 4.666 0 0 1 84 22.667v34.667A4.666 4.666 0 0 1 79.333 62z" ></path>
<g ><path d="M60.075 27.625L67.6 40l-7.525 12.375" stroke-miterlimit="10" stroke-width="3.5" stroke="#333" fill="none" ></path>
<path d="M39.925 52.375L32.4 40l7.525-12.375" stroke-miterlimit="10" stroke-width="3.5" stroke="#333" fill="none" ></path>
<path d="M54.808 23.5l-9.616 33" stroke-miterlimit="10" stroke-width="3.5" stroke="#333" fill="none" ></path></g>
<metadata xmlns:d="https://loading.io/stock/" ><d:name >html</d:name>


<d:tags >html,developer,code,frontend,web,engineer,coding,hack,software</d:tags>


<d:license >by</d:license>


<d:slug >7h5t66</d:slug></metadata></g><!-- generated by https://loading.io/ --></svg>